<?xml version="1.0"?>
<svg xmlns="http://www.w3.org/2000/svg" xmlns:xlink="http://www.w3.org/1999/xlink" version="1.1" id="Capa_1" x="0px" y="0px" viewBox="0 0 357.443 357.443" style="enable-background:new 0 0 357.443 357.443;" xml:space="preserve" width="512px" height="512px" class=""><g><g>
	<g>
		<path d="M343.408,114.149l-82.744-82.736c-9.072-9.072-21.128-14.064-33.944-14.064c-12.816,0-24.872,5-33.936,14.064    L39.408,184.781L14.04,210.149c-18.72,18.712-18.72,49.168,0,67.88l57.36,57.36c0.736,0.744,1.552,1.408,2.424,1.992    c0.216,0.144,0.456,0.232,0.672,0.368c0.672,0.408,1.344,0.8,2.072,1.104c0.304,0.128,0.632,0.184,0.944,0.296    c0.672,0.232,1.328,0.48,2.04,0.616c1.04,0.216,2.096,0.328,3.168,0.328h96h104c8.832,0,16-7.168,16-16c0-8.832-7.168-16-16-16    h-65.376l126.072-126.064C362.12,163.317,362.12,132.861,343.408,114.149z M320.784,159.413l-148.696,148.68H89.352l-52.688-52.68    c-6.24-6.24-6.24-16.392,0-22.632l14.056-14.064l60.688,60.688c3.12,3.128,7.216,4.688,11.312,4.688s8.192-1.56,11.312-4.688    c6.248-6.248,6.248-16.376,0-22.624l-60.688-60.688L215.416,54.029c6.032-6.04,16.568-6.04,22.616,0l82.744,82.736    C327.016,143.013,327.016,153.174,320.784,159.413z" data-original="#000000" class="active-path" data-old_color="#000000" fill="#8D74BB"/>
	</g>
</g></g> </svg>
